<svg width="68" height="77" viewBox="0 0 68 77" fill="none" xmlns="http://www.w3.org/2000/svg">
<rect width="68" height="77" fill="white"/>
<rect x="8" y="19" width="52" height="22" rx="3" fill="white" stroke="#C4C4C4" stroke-width="2"/>
<rect x="7" y="46" width="30" height="12" rx="4" fill="#C4C4C4"/>
<path d="M17.0573 22C15.123 22 13.5493 23.5737 13.5493 25.508V26.6969H15.3308V25.508C15.3308 24.5559 16.1053 23.7813 17.0573 23.7813C18.0096 23.7813 18.7844 24.5559 18.7844 25.508V26.6969H20.5657V25.508C20.5657 23.5741 18.992 22 17.0573 22Z" fill="#A1A1A1"/>
<path d="M20.7463 27.2269H13.3679C12.6123 27.2269 12 27.8394 12 28.5949V33.5896C12 35.1006 13.2249 36.326 14.7361 36.326H19.3786C20.8895 36.326 22.1147 35.1011 22.1147 33.5896V28.5949C22.1147 27.8394 21.5021 27.2269 20.7463 27.2269ZM18.0735 33.4761C18.1098 33.6409 18.0024 33.7743 17.8342 33.7743H16.281C16.1124 33.7743 16.0051 33.6409 16.0414 33.4761L16.4805 31.4811C16.1416 31.2821 15.9131 30.915 15.9131 30.4936C15.9131 29.8616 16.4255 29.3492 17.0575 29.3492C17.6896 29.3492 18.202 29.8616 18.202 30.4936C18.202 30.915 17.9736 31.2821 17.6345 31.4811L18.0735 33.4761Z" fill="#A1A1A1"/>
<circle cx="28" cy="31" r="3" fill="#A1A1A1"/>
<circle cx="36" cy="31" r="3" fill="#A1A1A1"/>
<circle cx="44" cy="31" r="3" fill="#A1A1A1"/>
<circle cx="52" cy="31" r="3" fill="#A1A1A1"/>
</svg>
